<?xml version="1.0" standalone="no"?><!DOCTYPE svg PUBLIC "-//W3C//DTD SVG 1.1//EN" "http://www.w3.org/Graphics/SVG/1.1/DTD/svg11.dtd"><svg t="1619532227697" class="icon" viewBox="0 0 1024 1024" version="1.1" xmlns="http://www.w3.org/2000/svg" p-id="7638" xmlns:xlink="http://www.w3.org/1999/xlink" width="200" height="200"><defs><style type="text/css"></style></defs><path d="M217.8 161.4s-0.1 0 0 0h-39.9v-39.8c0-7.3-6-13.3-13.3-13.3-7.3 0-13.3 6-13.3 13.3v39.8h-39.8c-7.3 0-13.3 6-13.3 13.3s6 13.3 13.3 13.3h39.8v39.8c0 7.3 6 13.3 13.3 13.3 7.3 0 13.3-6 13.3-13.3V188h39.8c7.3 0 13.3-6 13.3-13.3s-5.9-13.3-13.2-13.3z" fill="#49BAF2" p-id="7639"></path><path d="M149.5 326.1c-6-6-15.9-6-21.9 0l-4.7 4.7-4.7-4.7c-6-6-15.9-6-21.9 0-6 6-6 15.9 0 21.9l15.6 15.6c6 6 15.9 6 21.9 0l15.6-15.6c6.1-6 6.1-15.8 0.1-21.9z" fill="#49BAF2" opacity=".47" p-id="7640"></path><path d="M987.8 979.6c-0.4-11.9-10.5-21.4-22.5-21l-9.3 0.4-0.3-9.3c-0.4-11.9-10.5-21.4-22.5-21-11.9 0.4-21.4 10.5-21 22.5l1.1 31c0.4 11.9 10.5 21.4 22.5 21l31-1.1c12-0.5 21.4-10.6 21-22.5z" fill="#49BAF2" p-id="7641"></path><path d="M328.7 137.9c-18.3 0-33.2-14.9-33.2-33.2s14.9-33.2 33.2-33.2c18.3 0 33.2 14.9 33.2 33.2s-14.9 33.2-33.2 33.2z m0-53.1c-11 0-19.9 8.9-19.9 19.9s8.9 19.9 19.9 19.9c11 0 19.9-8.9 19.9-19.9s-8.9-19.9-19.9-19.9z" fill="#49BAF2" opacity=".47" p-id="7642"></path><path d="M525.1 208.5c-7.3 0-13.3-5.9-13.3-13.3V89c0-7.3 5.9-13.3 13.3-13.3 7.3 0 13.3 5.9 13.3 13.3v106.2c0 7.3-5.9 13.3-13.3 13.3z" p-id="7643"></path><path d="M578.2 155.4H472c-7.3 0-13.3-5.9-13.3-13.3s5.9-13.3 13.3-13.3h106.2c7.3 0 13.3 5.9 13.3 13.3s-5.9 13.3-13.3 13.3z" p-id="7644"></path><path d="M724.3 918.9H379.1v-646c0-2.6 2.1-4.7 4.7-4.7h335.9c2.6 0 4.7 2.1 4.7 4.7v646zM777.4 447.5c0-14.7 9.5-26.6 21.3-26.6h52.7c17.8 0 32.3 16.2 32.3 36.2v425.5c0 20-14.4 36.2-32.3 36.2H778l-0.6-471.3z" fill="#49BAF2" opacity=".47" p-id="7645"></path><path d="M332.6 414.3h-80.1c-21.8 0-39.4 16.9-39.4 37.7v442.5c0 20.8 17.6 37.7 39.4 37.7h78.8l1.3-517.9z" fill="#49BAF2" opacity=".47" p-id="7646"></path><path d="M160 630.6c-7.3 0-13.3-5.9-13.3-13.3v-47.6c0-7.3 5.9-13.3 13.3-13.3s13.3 5.9 13.3 13.3v47.6c-0.1 7.4-6 13.3-13.3 13.3zM160 527.6c-7.3 0-13.3-5.9-13.3-13.3V408.4c0-29.7 29.8-53.8 66.4-53.8h108c7.3 0 13.3 5.9 13.3 13.3 0 7.3-5.9 13.3-13.3 13.3h-108c-21.6 0-39.8 12.5-39.8 27.3v105.9c-0.1 7.3-6 13.2-13.3 13.2z" p-id="7647"></path><path d="M737.6 938.8H312.7V261.6c0-36.6 29.8-66.4 66.4-66.4h292.1c36.6 0 66.4 29.8 66.4 66.4v677.2z m-398.4-26.5H711V261.6c0-22-17.9-39.8-39.8-39.8H379.1c-22 0-39.8 17.9-39.8 39.8v650.7z" p-id="7648"></path><path d="M677.8 413.7c-7.3 0-13.3-5.9-13.3-13.3v-61.9c0-9.1-7.4-16.6-16.6-16.6h-23.3c-7.3 0-13.3-5.9-13.3-13.3s5.9-13.3 13.3-13.3H648c23.8 0 43.1 19.3 43.1 43.1v61.9c0 7.4-5.9 13.4-13.3 13.4z" fill="#FFFFFF" p-id="7649"></path><path d="M641.3 471H415.6c-7.3 0-13.3-5.9-13.3-13.3 0-7.3 5.9-13.3 13.3-13.3h225.7c7.3 0 13.3 5.9 13.3 13.3s-5.9 13.3-13.3 13.3z" p-id="7650"></path><path d="M641.3 540.5H415.6c-7.3 0-13.3-5.9-13.3-13.3s5.9-13.3 13.3-13.3h225.7c7.3 0 13.3 5.9 13.3 13.3s-5.9 13.3-13.3 13.3z" p-id="7651"></path><path d="M641.3 609.9H415.6c-7.3 0-13.3-5.9-13.3-13.3 0-7.3 5.9-13.3 13.3-13.3h225.7c7.3 0 13.3 5.9 13.3 13.3s-5.9 13.3-13.3 13.3z" p-id="7652"></path><path d="M591.5 925.5H458.7V688.9c0-1.3 1-2.3 2.3-2.3h128.1c1.3 0 2.3 1 2.3 2.3v236.6z" fill="#49BAF2" p-id="7653"></path><path d="M604.8 938.8H445.5V713.1c0-22 17.9-39.8 39.8-39.8H565c22 0 39.8 17.9 39.8 39.8v225.7zM472 912.3h106.2V713.1c0-7.3-6-13.3-13.3-13.3h-79.7c-7.3 0-13.3 6-13.3 13.3v199.2z" p-id="7654"></path></svg>