<?xml version="1.0" standalone="no"?><!DOCTYPE svg PUBLIC "-//W3C//DTD SVG 1.1//EN" "http://www.w3.org/Graphics/SVG/1.1/DTD/svg11.dtd"><svg t="1619498452837" class="icon" viewBox="0 0 1024 1024" version="1.1" xmlns="http://www.w3.org/2000/svg" p-id="2212" xmlns:xlink="http://www.w3.org/1999/xlink" width="200" height="200"><defs><style type="text/css"></style></defs><path d="M264.533333 375.466667l-187.733333 102.4v477.866666h870.4V477.866667l-187.733333-102.4h-494.933334z" fill="#FFFFFF" p-id="2213"></path><path d="M76.8 870.4h870.4v85.333333h-870.4z" fill="#E1E8EF" p-id="2214"></path><path d="M273.066667 955.733333V136.533333a68.266667 68.266667 0 0 1 68.266666-68.266666h341.333334a68.266667 68.266667 0 0 1 68.266666 68.266666v819.2z" fill="#72E8B8" p-id="2215"></path><path d="M682.666667 68.266667H341.333333a68.266667 68.266667 0 0 0-68.266666 68.266666v85.333334a68.266667 68.266667 0 0 1 68.266666-68.266667h341.333334a68.266667 68.266667 0 0 1 68.266666 68.266667V136.533333a68.266667 68.266667 0 0 0-68.266666-68.266666z" fill="#D7FFEE" p-id="2216"></path><path d="M273.066667 870.4h477.866666v85.333333H273.066667z" fill="#49CE95" p-id="2217"></path><path d="M959.488 455.338667L776.533333 355.669333V136.533333A94.037333 94.037333 0 0 0 682.666667 42.666667H341.333333A94.037333 94.037333 0 0 0 247.466667 136.533333v219.136L64.512 455.338667A25.6 25.6 0 0 0 51.2 477.866667v477.866666a25.6 25.6 0 0 0 25.6 25.6h870.4A25.6 25.6 0 0 0 972.8 955.733333V477.866667a25.6 25.6 0 0 0-13.312-22.528z m-182.954667 165.546666H921.6v68.266667h-145.066667z m145.066667-127.829333v93.525333h-145.066667V413.866667zM341.333333 93.866667h341.333334A42.666667 42.666667 0 0 1 725.333333 136.533333v793.6h-426.666666V136.533333A42.666667 42.666667 0 0 1 341.333333 93.866667zM102.4 620.885333h145.066667v68.266667H102.4z m145.066667-206.848v172.714667H102.4v-93.696zM102.4 723.285333h145.066667V930.133333H102.4zM776.533333 930.133333V723.285333H921.6V930.133333z" fill="#3E4454" p-id="2218"></path><path d="M426.666667 349.866667h59.733333V409.6a25.6 25.6 0 0 0 51.2 0v-59.733333H597.333333a25.6 25.6 0 0 0 0-51.2h-59.733333V238.933333a25.6 25.6 0 0 0-51.2 0v59.733334H426.666667a25.6 25.6 0 0 0 0 51.2z" fill="#3E4454" p-id="2219"></path></svg>